<mxfile host="app.diagrams.net" modified="2024-02-22T06:24:42.282Z" agent="Mozilla/5.0 (Windows NT 10.0; Win64; x64) AppleWebKit/537.36 (KHTML, like Gecko) Chrome/121.0.0.0 Safari/537.36" etag="bNA7rLNGIrhc4K4oIwBC" version="23.1.5" type="device">
  <diagram name="Страница — 1" id="d3g8JKnx53ry-rijpZhv">
    <mxGraphModel dx="1060" dy="1902" grid="1" gridSize="10" guides="1" tooltips="1" connect="1" arrows="1" fold="1" page="1" pageScale="1" pageWidth="827" pageHeight="1169" math="0" shadow="0">
      <root>
        <mxCell id="0" />
        <mxCell id="1" parent="0" />
        <mxCell id="ValACG3Bvr9wxOSEspc4-15" style="edgeStyle=orthogonalEdgeStyle;rounded=0;orthogonalLoop=1;jettySize=auto;html=1;exitX=0.5;exitY=1;exitDx=0;exitDy=0;entryX=0;entryY=0.5;entryDx=0;entryDy=0;" parent="1" source="ValACG3Bvr9wxOSEspc4-1" target="ValACG3Bvr9wxOSEspc4-2" edge="1">
          <mxGeometry relative="1" as="geometry" />
        </mxCell>
        <mxCell id="jTltujZDSSBdLRMe0W_z-2" value="Логин и пароль" style="edgeLabel;html=1;align=center;verticalAlign=middle;resizable=0;points=[];" vertex="1" connectable="0" parent="ValACG3Bvr9wxOSEspc4-15">
          <mxGeometry x="-0.3227" y="-1" relative="1" as="geometry">
            <mxPoint as="offset" />
          </mxGeometry>
        </mxCell>
        <mxCell id="ValACG3Bvr9wxOSEspc4-1" value="Менеджер" style="rounded=0;whiteSpace=wrap;html=1;" parent="1" vertex="1">
          <mxGeometry x="100" y="80" width="120" height="40" as="geometry" />
        </mxCell>
        <mxCell id="p9ViBomGfdDgf2S_cusO-25" style="edgeStyle=orthogonalEdgeStyle;rounded=0;orthogonalLoop=1;jettySize=auto;html=1;exitX=1;exitY=0;exitDx=0;exitDy=0;entryX=0.5;entryY=1;entryDx=0;entryDy=0;" parent="1" source="ValACG3Bvr9wxOSEspc4-2" target="p9ViBomGfdDgf2S_cusO-2" edge="1">
          <mxGeometry relative="1" as="geometry">
            <Array as="points">
              <mxPoint x="250" y="197" />
              <mxPoint x="250" y="160" />
              <mxPoint x="325" y="160" />
            </Array>
          </mxGeometry>
        </mxCell>
        <mxCell id="p9ViBomGfdDgf2S_cusO-29" style="edgeStyle=orthogonalEdgeStyle;rounded=0;orthogonalLoop=1;jettySize=auto;html=1;exitX=0.5;exitY=1;exitDx=0;exitDy=0;entryX=0;entryY=0.5;entryDx=0;entryDy=0;" parent="1" source="ValACG3Bvr9wxOSEspc4-2" target="ValACG3Bvr9wxOSEspc4-3" edge="1">
          <mxGeometry relative="1" as="geometry" />
        </mxCell>
        <mxCell id="jTltujZDSSBdLRMe0W_z-6" value="Данные о&lt;br style=&quot;border-color: var(--border-color);&quot;&gt;бронировании" style="edgeLabel;html=1;align=center;verticalAlign=middle;resizable=0;points=[];" vertex="1" connectable="0" parent="p9ViBomGfdDgf2S_cusO-29">
          <mxGeometry x="-0.2222" y="-5" relative="1" as="geometry">
            <mxPoint x="5" y="-10" as="offset" />
          </mxGeometry>
        </mxCell>
        <mxCell id="p9ViBomGfdDgf2S_cusO-33" style="edgeStyle=orthogonalEdgeStyle;rounded=0;orthogonalLoop=1;jettySize=auto;html=1;exitX=1;exitY=0.5;exitDx=0;exitDy=0;entryX=0;entryY=0.5;entryDx=0;entryDy=0;" parent="1" source="ValACG3Bvr9wxOSEspc4-2" target="ValACG3Bvr9wxOSEspc4-10" edge="1">
          <mxGeometry relative="1" as="geometry" />
        </mxCell>
        <mxCell id="jTltujZDSSBdLRMe0W_z-3" value="Сведения&lt;br&gt;&amp;nbsp;о клиентах" style="edgeLabel;html=1;align=center;verticalAlign=middle;resizable=0;points=[];" vertex="1" connectable="0" parent="p9ViBomGfdDgf2S_cusO-33">
          <mxGeometry x="-0.4103" y="-1" relative="1" as="geometry">
            <mxPoint x="12" y="-1" as="offset" />
          </mxGeometry>
        </mxCell>
        <mxCell id="ValACG3Bvr9wxOSEspc4-2" value="Авторизация" style="ellipse;whiteSpace=wrap;html=1;aspect=fixed;" parent="1" vertex="1">
          <mxGeometry x="180" y="185" width="80" height="80" as="geometry" />
        </mxCell>
        <mxCell id="p9ViBomGfdDgf2S_cusO-30" style="edgeStyle=orthogonalEdgeStyle;rounded=0;orthogonalLoop=1;jettySize=auto;html=1;exitX=0.5;exitY=1;exitDx=0;exitDy=0;entryX=0.5;entryY=0;entryDx=0;entryDy=0;" parent="1" source="ValACG3Bvr9wxOSEspc4-3" target="ValACG3Bvr9wxOSEspc4-14" edge="1">
          <mxGeometry relative="1" as="geometry">
            <mxPoint x="305" y="391" as="targetPoint" />
          </mxGeometry>
        </mxCell>
        <mxCell id="jTltujZDSSBdLRMe0W_z-5" value="Данные о &lt;br&gt;бронировании" style="edgeLabel;html=1;align=center;verticalAlign=middle;resizable=0;points=[];" vertex="1" connectable="0" parent="p9ViBomGfdDgf2S_cusO-30">
          <mxGeometry x="0.5484" relative="1" as="geometry">
            <mxPoint y="-25" as="offset" />
          </mxGeometry>
        </mxCell>
        <mxCell id="ValACG3Bvr9wxOSEspc4-3" value="Ввод данных для бронирования" style="ellipse;whiteSpace=wrap;html=1;aspect=fixed;" parent="1" vertex="1">
          <mxGeometry x="270" y="299" width="90" height="90" as="geometry" />
        </mxCell>
        <mxCell id="p9ViBomGfdDgf2S_cusO-11" style="edgeStyle=orthogonalEdgeStyle;rounded=0;orthogonalLoop=1;jettySize=auto;html=1;exitX=0.5;exitY=1;exitDx=0;exitDy=0;entryX=0.5;entryY=0;entryDx=0;entryDy=0;" parent="1" source="ValACG3Bvr9wxOSEspc4-6" target="ValACG3Bvr9wxOSEspc4-9" edge="1">
          <mxGeometry relative="1" as="geometry" />
        </mxCell>
        <mxCell id="ValACG3Bvr9wxOSEspc4-6" value="Администратор" style="rounded=0;whiteSpace=wrap;html=1;" parent="1" vertex="1">
          <mxGeometry x="850" y="145" width="120" height="40" as="geometry" />
        </mxCell>
        <mxCell id="jTltujZDSSBdLRMe0W_z-18" value="" style="edgeStyle=orthogonalEdgeStyle;rounded=0;orthogonalLoop=1;jettySize=auto;html=1;" edge="1" parent="1" source="ValACG3Bvr9wxOSEspc4-9" target="ValACG3Bvr9wxOSEspc4-7">
          <mxGeometry relative="1" as="geometry" />
        </mxCell>
        <mxCell id="ValACG3Bvr9wxOSEspc4-9" value="Ввод данных о сотрудниках" style="ellipse;whiteSpace=wrap;html=1;aspect=fixed;" parent="1" vertex="1">
          <mxGeometry x="865" y="250" width="90" height="90" as="geometry" />
        </mxCell>
        <mxCell id="ValACG3Bvr9wxOSEspc4-10" value="Ввод данных о клиентах" style="ellipse;whiteSpace=wrap;html=1;aspect=fixed;" parent="1" vertex="1">
          <mxGeometry x="369" y="180" width="90" height="90" as="geometry" />
        </mxCell>
        <mxCell id="p9ViBomGfdDgf2S_cusO-35" style="edgeStyle=orthogonalEdgeStyle;rounded=0;orthogonalLoop=1;jettySize=auto;html=1;exitX=0.5;exitY=0;exitDx=0;exitDy=0;entryX=1;entryY=0.5;entryDx=0;entryDy=0;" parent="1" source="ValACG3Bvr9wxOSEspc4-13" target="p9ViBomGfdDgf2S_cusO-34" edge="1">
          <mxGeometry relative="1" as="geometry" />
        </mxCell>
        <mxCell id="jTltujZDSSBdLRMe0W_z-1" value="Отчеты" style="edgeLabel;html=1;align=center;verticalAlign=middle;resizable=0;points=[];" vertex="1" connectable="0" parent="p9ViBomGfdDgf2S_cusO-35">
          <mxGeometry x="0.5358" y="-1" relative="1" as="geometry">
            <mxPoint x="27" y="1" as="offset" />
          </mxGeometry>
        </mxCell>
        <mxCell id="ValACG3Bvr9wxOSEspc4-13" value="Формирование отчетов" style="ellipse;whiteSpace=wrap;html=1;aspect=fixed;" parent="1" vertex="1">
          <mxGeometry x="690" y="90" width="90" height="90" as="geometry" />
        </mxCell>
        <mxCell id="p9ViBomGfdDgf2S_cusO-32" style="edgeStyle=orthogonalEdgeStyle;rounded=0;orthogonalLoop=1;jettySize=auto;html=1;exitX=1;exitY=0.5;exitDx=0;exitDy=0;entryX=0;entryY=0.5;entryDx=0;entryDy=0;" parent="1" source="ValACG3Bvr9wxOSEspc4-14" target="p9ViBomGfdDgf2S_cusO-15" edge="1">
          <mxGeometry relative="1" as="geometry" />
        </mxCell>
        <mxCell id="jTltujZDSSBdLRMe0W_z-7" value="Сведение о&amp;nbsp;&lt;br&gt;доступных номерах" style="edgeLabel;html=1;align=center;verticalAlign=middle;resizable=0;points=[];" vertex="1" connectable="0" parent="p9ViBomGfdDgf2S_cusO-32">
          <mxGeometry x="0.0061" y="-1" relative="1" as="geometry">
            <mxPoint as="offset" />
          </mxGeometry>
        </mxCell>
        <mxCell id="ValACG3Bvr9wxOSEspc4-14" value="Определение доступности номеров" style="ellipse;whiteSpace=wrap;html=1;aspect=fixed;" parent="1" vertex="1">
          <mxGeometry x="270" y="460" width="90" height="90" as="geometry" />
        </mxCell>
        <mxCell id="ValACG3Bvr9wxOSEspc4-20" value="" style="group" parent="1" vertex="1" connectable="0">
          <mxGeometry x="690" y="234.73000000000002" width="90" height="30.27000000000001" as="geometry" />
        </mxCell>
        <mxCell id="ValACG3Bvr9wxOSEspc4-12" value="Приходные документы" style="text;html=1;align=center;verticalAlign=middle;whiteSpace=wrap;rounded=0;" parent="ValACG3Bvr9wxOSEspc4-20" vertex="1">
          <mxGeometry y="0.27000000000001023" width="90" height="30" as="geometry" />
        </mxCell>
        <mxCell id="ValACG3Bvr9wxOSEspc4-18" value="" style="endArrow=none;html=1;rounded=0;" parent="ValACG3Bvr9wxOSEspc4-20" edge="1">
          <mxGeometry width="50" height="50" relative="1" as="geometry">
            <mxPoint as="sourcePoint" />
            <mxPoint x="90" y="0.27000000000001023" as="targetPoint" />
          </mxGeometry>
        </mxCell>
        <mxCell id="ValACG3Bvr9wxOSEspc4-19" value="" style="endArrow=none;html=1;rounded=0;" parent="ValACG3Bvr9wxOSEspc4-20" edge="1">
          <mxGeometry width="50" height="50" relative="1" as="geometry">
            <mxPoint y="30.27000000000001" as="sourcePoint" />
            <mxPoint x="90" y="30.27000000000001" as="targetPoint" />
          </mxGeometry>
        </mxCell>
        <mxCell id="ValACG3Bvr9wxOSEspc4-31" value="" style="group" parent="1" vertex="1" connectable="0">
          <mxGeometry x="513" y="250" width="90" height="30" as="geometry" />
        </mxCell>
        <mxCell id="ValACG3Bvr9wxOSEspc4-5" value="Сведения о клиентах" style="text;html=1;align=center;verticalAlign=middle;whiteSpace=wrap;rounded=0;" parent="ValACG3Bvr9wxOSEspc4-31" vertex="1">
          <mxGeometry width="90" height="30" as="geometry" />
        </mxCell>
        <mxCell id="ValACG3Bvr9wxOSEspc4-29" value="" style="endArrow=none;html=1;rounded=0;exitX=0;exitY=0;exitDx=0;exitDy=0;entryX=1;entryY=0;entryDx=0;entryDy=0;" parent="ValACG3Bvr9wxOSEspc4-31" source="ValACG3Bvr9wxOSEspc4-5" target="ValACG3Bvr9wxOSEspc4-5" edge="1">
          <mxGeometry width="50" height="50" relative="1" as="geometry">
            <mxPoint x="40" y="120" as="sourcePoint" />
            <mxPoint x="90" y="70" as="targetPoint" />
          </mxGeometry>
        </mxCell>
        <mxCell id="ValACG3Bvr9wxOSEspc4-30" value="" style="endArrow=none;html=1;rounded=0;exitX=0;exitY=0;exitDx=0;exitDy=0;entryX=1;entryY=0;entryDx=0;entryDy=0;" parent="ValACG3Bvr9wxOSEspc4-31" edge="1">
          <mxGeometry width="50" height="50" relative="1" as="geometry">
            <mxPoint y="30" as="sourcePoint" />
            <mxPoint x="90" y="30" as="targetPoint" />
          </mxGeometry>
        </mxCell>
        <mxCell id="ValACG3Bvr9wxOSEspc4-32" style="edgeStyle=orthogonalEdgeStyle;rounded=0;orthogonalLoop=1;jettySize=auto;html=1;exitX=1;exitY=0.5;exitDx=0;exitDy=0;entryX=-0.046;entryY=0.471;entryDx=0;entryDy=0;entryPerimeter=0;" parent="1" source="ValACG3Bvr9wxOSEspc4-10" target="ValACG3Bvr9wxOSEspc4-5" edge="1">
          <mxGeometry relative="1" as="geometry" />
        </mxCell>
        <mxCell id="jTltujZDSSBdLRMe0W_z-15" style="edgeStyle=orthogonalEdgeStyle;rounded=0;orthogonalLoop=1;jettySize=auto;html=1;exitX=0.5;exitY=0;exitDx=0;exitDy=0;entryX=0.5;entryY=1;entryDx=0;entryDy=0;" edge="1" parent="1" source="p9ViBomGfdDgf2S_cusO-2" target="jTltujZDSSBdLRMe0W_z-11">
          <mxGeometry relative="1" as="geometry">
            <mxPoint x="90" y="230" as="targetPoint" />
          </mxGeometry>
        </mxCell>
        <mxCell id="p9ViBomGfdDgf2S_cusO-2" value="Ввод сведений о номерах" style="ellipse;whiteSpace=wrap;html=1;aspect=fixed;" parent="1" vertex="1">
          <mxGeometry x="280" y="30" width="90" height="90" as="geometry" />
        </mxCell>
        <mxCell id="p9ViBomGfdDgf2S_cusO-10" value="" style="group" parent="1" vertex="1" connectable="0">
          <mxGeometry x="864" y="419" width="90" height="30.5" as="geometry" />
        </mxCell>
        <mxCell id="ValACG3Bvr9wxOSEspc4-7" value="Сведения о сотрудниках" style="text;html=1;align=center;verticalAlign=middle;whiteSpace=wrap;rounded=0;" parent="p9ViBomGfdDgf2S_cusO-10" vertex="1">
          <mxGeometry y="0.5" width="90" height="30" as="geometry" />
        </mxCell>
        <mxCell id="p9ViBomGfdDgf2S_cusO-8" value="" style="endArrow=none;html=1;rounded=0;exitX=0;exitY=0;exitDx=0;exitDy=0;entryX=1;entryY=0;entryDx=0;entryDy=0;" parent="p9ViBomGfdDgf2S_cusO-10" edge="1">
          <mxGeometry width="50" height="50" relative="1" as="geometry">
            <mxPoint as="sourcePoint" />
            <mxPoint x="90" as="targetPoint" />
          </mxGeometry>
        </mxCell>
        <mxCell id="p9ViBomGfdDgf2S_cusO-9" value="" style="endArrow=none;html=1;rounded=0;exitX=0;exitY=0;exitDx=0;exitDy=0;entryX=1;entryY=0;entryDx=0;entryDy=0;" parent="p9ViBomGfdDgf2S_cusO-10" edge="1">
          <mxGeometry width="50" height="50" relative="1" as="geometry">
            <mxPoint y="30" as="sourcePoint" />
            <mxPoint x="90" y="30" as="targetPoint" />
          </mxGeometry>
        </mxCell>
        <mxCell id="p9ViBomGfdDgf2S_cusO-23" style="edgeStyle=orthogonalEdgeStyle;rounded=0;orthogonalLoop=1;jettySize=auto;html=1;exitX=1;exitY=0;exitDx=0;exitDy=0;entryX=0.5;entryY=1;entryDx=0;entryDy=0;" parent="1" source="p9ViBomGfdDgf2S_cusO-15" target="ValACG3Bvr9wxOSEspc4-12" edge="1">
          <mxGeometry relative="1" as="geometry" />
        </mxCell>
        <mxCell id="p9ViBomGfdDgf2S_cusO-15" value="Формирование брони" style="ellipse;whiteSpace=wrap;html=1;aspect=fixed;" parent="1" vertex="1">
          <mxGeometry x="610" y="390" width="90" height="90" as="geometry" />
        </mxCell>
        <mxCell id="p9ViBomGfdDgf2S_cusO-16" style="edgeStyle=orthogonalEdgeStyle;rounded=0;orthogonalLoop=1;jettySize=auto;html=1;exitX=1;exitY=0.5;exitDx=0;exitDy=0;entryX=0;entryY=0;entryDx=0;entryDy=0;" parent="1" source="ValACG3Bvr9wxOSEspc4-5" target="p9ViBomGfdDgf2S_cusO-15" edge="1">
          <mxGeometry relative="1" as="geometry" />
        </mxCell>
        <mxCell id="p9ViBomGfdDgf2S_cusO-21" style="edgeStyle=orthogonalEdgeStyle;rounded=0;orthogonalLoop=1;jettySize=auto;html=1;exitX=0;exitY=0.5;exitDx=0;exitDy=0;entryX=1;entryY=0.5;entryDx=0;entryDy=0;" parent="1" source="ValACG3Bvr9wxOSEspc4-7" target="p9ViBomGfdDgf2S_cusO-15" edge="1">
          <mxGeometry relative="1" as="geometry" />
        </mxCell>
        <mxCell id="p9ViBomGfdDgf2S_cusO-22" style="edgeStyle=orthogonalEdgeStyle;rounded=0;orthogonalLoop=1;jettySize=auto;html=1;entryX=0.5;entryY=1;entryDx=0;entryDy=0;" parent="1" source="ValACG3Bvr9wxOSEspc4-12" target="ValACG3Bvr9wxOSEspc4-13" edge="1">
          <mxGeometry relative="1" as="geometry" />
        </mxCell>
        <mxCell id="p9ViBomGfdDgf2S_cusO-34" value="Отдел учета" style="rounded=0;whiteSpace=wrap;html=1;" parent="1" vertex="1">
          <mxGeometry x="500" y="50" width="120" height="40" as="geometry" />
        </mxCell>
        <mxCell id="jTltujZDSSBdLRMe0W_z-10" value="" style="group" vertex="1" connectable="0" parent="1">
          <mxGeometry x="280" y="-30" width="90" height="30" as="geometry" />
        </mxCell>
        <mxCell id="jTltujZDSSBdLRMe0W_z-11" value="Сведения о номерах" style="text;html=1;align=center;verticalAlign=middle;whiteSpace=wrap;rounded=0;" vertex="1" parent="jTltujZDSSBdLRMe0W_z-10">
          <mxGeometry width="90" height="30" as="geometry" />
        </mxCell>
        <mxCell id="jTltujZDSSBdLRMe0W_z-12" value="" style="endArrow=none;html=1;rounded=0;exitX=0;exitY=0;exitDx=0;exitDy=0;entryX=1;entryY=0;entryDx=0;entryDy=0;" edge="1" parent="jTltujZDSSBdLRMe0W_z-10" source="jTltujZDSSBdLRMe0W_z-11" target="jTltujZDSSBdLRMe0W_z-11">
          <mxGeometry width="50" height="50" relative="1" as="geometry">
            <mxPoint x="40" y="120" as="sourcePoint" />
            <mxPoint x="90" y="70" as="targetPoint" />
          </mxGeometry>
        </mxCell>
        <mxCell id="jTltujZDSSBdLRMe0W_z-13" value="" style="endArrow=none;html=1;rounded=0;exitX=0;exitY=0;exitDx=0;exitDy=0;entryX=1;entryY=0;entryDx=0;entryDy=0;" edge="1" parent="jTltujZDSSBdLRMe0W_z-10">
          <mxGeometry width="50" height="50" relative="1" as="geometry">
            <mxPoint y="30" as="sourcePoint" />
            <mxPoint x="90" y="30" as="targetPoint" />
          </mxGeometry>
        </mxCell>
        <mxCell id="jTltujZDSSBdLRMe0W_z-16" style="edgeStyle=orthogonalEdgeStyle;rounded=0;orthogonalLoop=1;jettySize=auto;html=1;entryX=0;entryY=0.5;entryDx=0;entryDy=0;exitX=0;exitY=0.5;exitDx=0;exitDy=0;" edge="1" parent="1" source="jTltujZDSSBdLRMe0W_z-11" target="ValACG3Bvr9wxOSEspc4-14">
          <mxGeometry relative="1" as="geometry">
            <Array as="points">
              <mxPoint x="90" y="-15" />
              <mxPoint x="90" y="505" />
            </Array>
          </mxGeometry>
        </mxCell>
        <mxCell id="jTltujZDSSBdLRMe0W_z-17" style="edgeStyle=orthogonalEdgeStyle;rounded=0;orthogonalLoop=1;jettySize=auto;html=1;exitX=1;exitY=0.5;exitDx=0;exitDy=0;entryX=0;entryY=0.5;entryDx=0;entryDy=0;" edge="1" parent="1" source="jTltujZDSSBdLRMe0W_z-11" target="ValACG3Bvr9wxOSEspc4-13">
          <mxGeometry relative="1" as="geometry">
            <Array as="points">
              <mxPoint x="460" y="-15" />
              <mxPoint x="460" y="135" />
            </Array>
          </mxGeometry>
        </mxCell>
      </root>
    </mxGraphModel>
  </diagram>
</mxfile>
